# xmcd CD database file
#
# Track frame offsets:
#	150
#	11527
#	23485
#	30265
#	42987
#	52950
#	62177
#	72482
#	79885
#	95060
#	111707
#	127782
#
# Disc length: 1816 seconds
#
# Revision: 2
# Processed by: cddbd v1.5.2PL0 Copyright (c) Steve Scherf et al.
# Submitted via: CDex 1.70beta2
#
DISCID=9a07160c
DTITLE=Red Meat - Meet Red Meat
DYEAR=1900
DGENRE=
TTITLE0=14 Hours from Tulsa
TTITLE1=Highway of Heartaches
TTITLE2=Nashville Fantasy
TTITLE3=Inner Redneck
TTITLE4=Lolita
TTITLE5=Texas Texas
TTITLE6=The Girl with the Biggest Hair
TTITLE7=My Answered Prayer
TTITLE8=One Glass at a Time
TTITLE9=She's Too Good to be True
TTITLE10=Phone Tag
TTITLE11=12 Inch 3 Speed Oscillating Fan
EXTD=Red Meat is San Francisco's premiere hardcore honky-tonk band. Composed chiefly of expatriate\nMidwesterners, this crew has country roots that run pretty deep. Red Meat has recently released its first\nCD, "Meet Red Meat" on Ranchero Records. The CD
EXTD=features twelve original songs, all penned by band\nmember Scott Young. The songs reflect the influences of such country artists as George Jones, The\nLouvin Brothers and Hank Williams but the subject matter runs the gamut from big-haired women and
EXTD=\ntrucks to voice-mail and tattoos. Check out our CD page for more info on the CD and how to order it.\n\nPerforming regularly in the Bay Area club scene for the last six years, Red Meat has recently toured the\nSouthwest with stops in Austin, San A
EXTD=ntonio and L.A. (blowing the doors off Jack's Sugar Shack). Word\nhas arrived from the continent that Red Meat's "Texas, Texas" has reached number five on the French\nCountry Music Charts and the CD has been well-received throughout Europe. Sacre bl
EXTD=eu! \n\nMake no mistake, Red Meat is San Francisco's prime choice for high cholesterol honky-tonk. Featuring a\nwailing steel guitar, hot fiddle and tight harmonies, this is a band that is guaran-damn-teed to bring out the\nredneck in you.\nURL: htt
EXTD=p://home.earthlink.net/~lesjames/index.htm "Red Meat's Home"
EXTT0=
EXTT1=
EXTT2=
EXTT3=
EXTT4=
EXTT5=
EXTT6=
EXTT7=
EXTT8=
EXTT9=
EXTT10=
EXTT11=
PLAYORDER=
